<svg width="30" height="23" viewBox="0 0 30 23" fill="none" xmlns="http://www.w3.org/2000/svg">
<path d="M29.9489 0L29.0217 2.5H26.6146L22.2795 17.5H5.75892L0 3.75H20.9792L20.2754 6.25H3.75359L7.41859 15H20.4314L24.7141 0H29.9489ZM10.6069 18.75C9.57366 18.75 8.73509 19.59 8.73509 20.625C8.73509 21.6612 9.57366 22.5 10.6069 22.5C11.6401 22.5 12.4787 21.6612 12.4787 20.625C12.4787 19.59 11.6401 18.75 10.6069 18.75ZM19.2172 10L16.8463 18.75C15.813 18.75 14.9744 19.5888 14.9744 20.625C14.9744 21.6612 15.813 22.5 16.8463 22.5C17.8795 22.5 18.7181 21.6612 18.7181 20.625C18.7181 19.59 17.8795 18.75 16.8463 18.75L19.2172 10Z" fill="#828282"/>
</svg>
